<svg xmlns="http://www.w3.org/2000/svg" width="22" height="22" viewBox="0 0 22 22">
  <path d="M18.465,24.931a5.465,5.465,0,1,1,5.465-5.465A5.465,5.465,0,0,1,18.465,24.931Zm0-9.564a4.1,4.1,0,1,0,4.1,4.1A4.1,4.1,0,0,0,18.465,15.366Z" transform="translate(-4.119 -4.436)"/>
  <path d="M21.769,22.782,20,21.013V18h1.366v2.453l1.366,1.366Z" transform="translate(-6.337 -5.703)"/>
  <path d="M20.4,4.733A1.366,1.366,0,0,0,19.03,3.366H16.3V2H14.931V3.366H9.465V2H8.1V3.366H5.366A1.366,1.366,0,0,0,4,4.733V18.4a1.366,1.366,0,0,0,1.366,1.366H8.1V18.4H5.366V4.733H8.1V6.1H9.465V4.733h5.465V6.1H16.3V4.733H19.03v4.1H20.4Z" transform="translate(-1.267 -0.634)"/>
</svg>