<svg id="catalog" xmlns="http://www.w3.org/2000/svg" width="20" height="20" viewBox="0 0 18 18">
  <path id="Path_11776" data-name="Path 11776" d="M16.864,2H6.339A1.169,1.169,0,0,0,5.169,3.169V5.508H4V6.678H5.169V9.6H4v1.169H5.169v2.924H4v1.169H5.169V17.2a1.169,1.169,0,0,0,1.169,1.169H16.864A1.169,1.169,0,0,0,18.033,17.2V3.169A1.169,1.169,0,0,0,16.864,2Zm0,15.2H6.339V14.864H7.508V13.694H6.339V10.771H7.508V9.6H6.339V6.678H7.508V5.508H6.339V3.169H16.864Z" transform="translate(-1.661 -0.831)" fill="#0a6ed1"/>
  <rect id="Rectangle_5157" data-name="Rectangle 5157" width="5" height="1" transform="translate(8 5)" fill="#0a6ed1"/>
  <rect id="Rectangle_5158" data-name="Rectangle 5158" width="5" height="1" transform="translate(8 9)" fill="#0a6ed1"/>
  <rect id="Rectangle_5159" data-name="Rectangle 5159" width="5" height="1" transform="translate(8 13)" fill="#0a6ed1"/>
  <rect id="_Transparent_Rectangle_" data-name="&lt;Transparent Rectangle&gt;" width="18" height="18" fill="none"/>
</svg>
