<svg xmlns="http://www.w3.org/2000/svg" width="16" height="16" viewBox="0 0 24 24">
  <path id="check_box_FILL1_wght400_GRAD0_opsz48" d="M8,30a2.051,2.051,0,0,1-2-2V8A2.051,2.051,0,0,1,8,6H28a2.051,2.051,0,0,1,2,2V28a2.051,2.051,0,0,1-2,2Zm7.967-7.1a1.113,1.113,0,0,0,.383-.067.716.716,0,0,0,.317-.233L24.9,14.333a.959.959,0,0,0,.3-.7,1.073,1.073,0,0,0-.3-.733,1.042,1.042,0,0,0-.717-.267.978.978,0,0,0-.717.3l-7.5,7.5L12.7,17.167a.967.967,0,0,0-1.4,0,1,1,0,0,0-.3.733.892.892,0,0,0,.3.7l3.967,4a.966.966,0,0,0,.35.233A1.024,1.024,0,0,0,15.967,22.9Z" transform="translate(-6 -6)" fill="#5f6368"/>
</svg>
