<svg xmlns="http://www.w3.org/2000/svg" width="16" height="16" viewBox="0 0 24 24">
  <path id="radio_button_checked_FILL0_wght400_GRAD0_opsz48" d="M16,21.58A5.532,5.532,0,0,0,21.58,16,5.532,5.532,0,0,0,16,10.42,5.532,5.532,0,0,0,10.42,16,5.532,5.532,0,0,0,16,21.58ZM16,28a11.611,11.611,0,0,1-4.65-.945A12.09,12.09,0,0,1,4.945,20.65a11.987,11.987,0,0,1,0-9.33,11.993,11.993,0,0,1,2.58-3.81A12.3,12.3,0,0,1,11.35,4.945a11.987,11.987,0,0,1,9.33,0,11.981,11.981,0,0,1,6.375,6.375,11.987,11.987,0,0,1,0,9.33,12.3,12.3,0,0,1-2.565,3.825,11.993,11.993,0,0,1-3.81,2.58A11.685,11.685,0,0,1,16,28Zm0-1.8a9.815,9.815,0,0,0,7.23-2.985A9.855,9.855,0,0,0,26.2,16a9.84,9.84,0,0,0-2.97-7.23A9.84,9.84,0,0,0,16,5.8,9.855,9.855,0,0,0,8.785,8.77,9.815,9.815,0,0,0,5.8,16a9.829,9.829,0,0,0,2.985,7.215A9.829,9.829,0,0,0,16,26.2ZM16,16Z" transform="translate(-4 -4)" fill="#5f6368"/>
</svg>
