<svg xmlns="http://www.w3.org/2000/svg" width="22" height="22" viewBox="0 0 22 22">
  <g transform="translate(0.373)">
    <path d="M18.869,4H5.352A1.352,1.352,0,0,0,4,5.352V18.869A1.352,1.352,0,0,0,5.352,20.22H18.869a1.352,1.352,0,0,0,1.352-1.352V5.352A1.352,1.352,0,0,0,18.869,4Zm0,1.352v2.7H5.352v-2.7ZM5.352,18.869V9.407H18.869v9.462Z" transform="translate(-1.297 -1.29)"/>
    <path d="M10.76,15.723l1.906,1.913L10.76,19.548l.953.953,2.866-2.866L11.713,14.77Z" transform="translate(-3.488 -4.788)"/>
  </g>
</svg>