<svg xmlns="http://www.w3.org/2000/svg" width="16" height="16" viewBox="0 0 24 24">
  <path id="arrow_drop_down_circle_FILL1_wght400_GRAD0_opsz48" d="M15.67,19.09a.438.438,0,0,0,.66,0l3.3-3.3a.47.47,0,0,0,.1-.51.419.419,0,0,0-.435-.27H12.67a.443.443,0,0,0-.3.78ZM16,28a12.171,12.171,0,0,1-4.74-.915A11.614,11.614,0,0,1,4.915,20.74,12.171,12.171,0,0,1,4,16a12.093,12.093,0,0,1,.915-4.71A11.712,11.712,0,0,1,7.45,7.48,11.964,11.964,0,0,1,16,4,11.9,11.9,0,0,1,28,16a11.964,11.964,0,0,1-3.48,8.55,11.712,11.712,0,0,1-3.81,2.535A12.093,12.093,0,0,1,16,28Z" transform="translate(-4 -4)" fill="#5f6368"/>
</svg>
