<svg id="home_1_" data-name="home (1)" xmlns="http://www.w3.org/2000/svg" width="18" height="18" viewBox="0 0 18 18">
  <rect id="_Transparent_Rectangle_" data-name="&lt;Transparent Rectangle&gt;" width="18" height="18" fill="none"/>
  <path id="Path_26882" data-name="Path 26882" d="M9.782,2.12a.568.568,0,0,0-.7,0L1,8.423l.7.884.988-.771V15.5a1.127,1.127,0,0,0,1.125,1.125h11.25A1.127,1.127,0,0,0,16.188,15.5V8.542l.988.771.7-.884Zm.781,13.38H8.313V11h2.25Zm1.125,0V11a1.126,1.126,0,0,0-1.125-1.125H8.313A1.126,1.126,0,0,0,7.188,11v4.5H3.813V7.66L9.438,3.278l5.625,4.388V15.5Z" transform="translate(-0.438 -0.875)" fill="#0a6ed1"/>
</svg>
