<svg id="notebook--reference" xmlns="http://www.w3.org/2000/svg" width="18" height="18" viewBox="0 0 24 24">
  <path id="Path_11790" data-name="Path 11790" d="M3.5,20v1.5H6.189L2,25.69l1.061,1.06L7.25,22.56v2.69h1.5V20Z" transform="translate(-0.5 -5)" fill="#ff9200"/>
  <rect id="Rectangle_5209" data-name="Rectangle 5209" width="5.25" height="1.5" transform="translate(14.25 7.5)" fill="#ff9200"/>
  <rect id="Rectangle_5210" data-name="Rectangle 5210" width="5.25" height="1.5" transform="translate(14.25 11.25)" fill="#ff9200"/>
  <rect id="Rectangle_5211" data-name="Rectangle 5211" width="5.25" height="1.5" transform="translate(14.25 15)" fill="#ff9200"/>
  <path id="Path_11791" data-name="Path 11791" d="M21.5,5H3.5A1.5,1.5,0,0,0,2,6.5V14H3.5V6.5h8.25v15H21.5A1.5,1.5,0,0,0,23,20V6.5A1.5,1.5,0,0,0,21.5,5ZM13.25,20V6.5H21.5V20Z" transform="translate(-0.5 -1.25)" fill="#ff9200"/>
  <rect id="_Transparent_Rectangle_" data-name="&lt;Transparent Rectangle&gt;" width="24" height="24" fill="none"/>
</svg>
