<svg xmlns="http://www.w3.org/2000/svg" width="27.273" height="30" viewBox="0 0 27.273 30">
  <path id="pending_actions_FILL1_wght400_GRAD0_opsz48" d="M26.49,32.2a6.8,6.8,0,0,1-6.782-6.782,6.8,6.8,0,0,1,6.782-6.782,6.8,6.8,0,0,1,6.782,6.782A6.8,6.8,0,0,1,26.49,32.2Zm1.579-3.66a.711.711,0,1,0,1-1l-2.189-2.189V22.009a.674.674,0,0,0-.682-.682.736.736,0,0,0-.718.718v3.373a1.054,1.054,0,0,0,.072.395,1.428,1.428,0,0,0,.215.359ZM8.153,30.262A2.144,2.144,0,0,1,6,28.109V7.224A2.22,2.22,0,0,1,6.556,5.7q.556-.628.951-.628h7.249a3.6,3.6,0,0,1,5.8-2.063,3.468,3.468,0,0,1,1.238,2.063h7.249a2.144,2.144,0,0,1,2.153,2.153V17.81a10.064,10.064,0,0,0-1.059-.556,9.87,9.87,0,0,0-1.094-.413V7.224h-3.8V9.736a2.144,2.144,0,0,1-2.153,2.153H14.11a2.144,2.144,0,0,1-2.153-2.153V7.224h-3.8V28.109h9.8a8.925,8.925,0,0,0,.431,1.059,11.565,11.565,0,0,0,.61,1.094ZM18.919,7.08a1.41,1.41,0,0,0,1.435-1.435,1.435,1.435,0,1,0-2.871,0A1.41,1.41,0,0,0,18.919,7.08Z" transform="translate(-6 -2.2)" fill="#06701f"/>
</svg>
