<svg id="text-link--analysis" xmlns="http://www.w3.org/2000/svg" width="12" height="12" viewBox="0 0 24 24">
  <rect id="Rectangle_18726" data-name="Rectangle 18726" width="6" height="1.5" transform="translate(6 7.5)"/>
  <rect id="Rectangle_18727" data-name="Rectangle 18727" width="9" height="1.5" transform="translate(6 4.5)"/>
  <rect id="Rectangle_18728" data-name="Rectangle 18728" width="9" height="1.5" transform="translate(6 1.5)"/>
  <path id="Path_26897" data-name="Path 26897" d="M4.033,21.5,8.257,14l5.576,4.867a1.5,1.5,0,0,0,2.313-.4l5.228-7.8-1.247-.835-5.25,7.835-.053.078L9.248,12.878a1.5,1.5,0,0,0-2.31.4L3.5,19.387V2H2V21.5A1.5,1.5,0,0,0,3.5,23H23V21.5Z" transform="translate(-0.5 -0.5)"/>
  <rect id="_Transparent_Rectangle_" data-name="&lt;Transparent Rectangle&gt;" width="24" height="24" fill="none"/>
</svg>
