<svg xmlns="http://www.w3.org/2000/svg" width="22" height="22" viewBox="0 0 22 22">
  <path class="a" d="M13.206,24.607H3.4a1.4,1.4,0,0,1-1.4-1.4V13.4A1.4,1.4,0,0,1,3.4,12h9.805a1.4,1.4,0,0,1,1.4,1.4v9.805A1.4,1.4,0,0,1,13.206,24.607ZM3.4,13.4v9.805h9.805V13.4Z" transform="translate(-0.599 -3.595)"/>
  <path class="a" d="M20.206,18.206h-1.4V8.4H9V7h9.805a1.4,1.4,0,0,1,1.4,1.4Z" transform="translate(-2.697 -2.097)"/>
  <path class="a" d="M25.805,11.805H24.4V3.4H16V2h8.4a1.4,1.4,0,0,1,1.4,1.4Z" transform="translate(-4.794 -0.599)"/>
</svg>