<svg style='' id="table_view" data-name="table view" xmlns="http://www.w3.org/2000/svg" width="18" height="15" viewBox="0 0 20 20">
  <path id="Path_10156" data-name="Path 10156" d="M17.717,3H4.226A1.226,1.226,0,0,0,3,4.226V17.717a1.226,1.226,0,0,0,1.226,1.226H17.717a1.226,1.226,0,0,0,1.226-1.226V4.226A1.226,1.226,0,0,0,17.717,3Zm0,1.226V6.679H4.226V4.226ZM11.585,7.906h6.132V12.2H11.585ZM10.359,12.2H4.226V7.906h6.132ZM4.226,13.425h6.132v4.293H4.226Zm7.359,4.293V13.425h6.132v4.293Z" transform="translate(-1.16 -1.16)" fill="#fff"/>
  <rect id="_Transparent_Rectangle_" data-name="&lt;Transparent Rectangle&gt;" width="20" height="20" fill="none"/>
</svg>
