<svg id="task" xmlns="http://www.w3.org/2000/svg" width="18" height="18" viewBox="0 0 24 24">
  <path id="Path_26895" data-name="Path 26895" d="M12.75,18.28l-2.692-2.693L9,16.645l3.75,3.75,6.75-6.75L18.443,12.58Z" transform="translate(-2.25 -3.145)"/>
  <path id="Path_26896" data-name="Path 26896" d="M20,4.25H17.75V3.5A1.5,1.5,0,0,0,16.25,2h-6a1.5,1.5,0,0,0-1.5,1.5v.75H6.5A1.5,1.5,0,0,0,5,5.75V21.5A1.5,1.5,0,0,0,6.5,23H20a1.5,1.5,0,0,0,1.5-1.5V5.75A1.5,1.5,0,0,0,20,4.25ZM10.25,3.5h6v3h-6ZM20,21.5H6.5V5.75H8.75V8h9V5.75H20Z" transform="translate(-1.25 -0.5)"/>
  <rect id="_Transparent_Rectangle_" data-name="&lt;Transparent Rectangle&gt;" width="24" height="24" fill="none"/>
</svg>
