<svg id="user--certification" xmlns="http://www.w3.org/2000/svg" width="18" height="18" viewBox="0 0 18 18">
  <path id="Path_26885" data-name="Path 26885" d="M22.813,10l.9,1.688,1.916.233-1.406,1.267.281,1.875-1.687-1.055-1.687,1.055.281-1.875L20,11.92l1.969-.233Z" transform="translate(-8.75 -4.375)" fill="#101010"/>
  <path id="Path_26886" data-name="Path 26886" d="M13.25,24.75H12.125V21.938a2.816,2.816,0,0,0-2.812-2.812H5.938a2.816,2.816,0,0,0-2.812,2.813V24.75H2V21.938A3.942,3.942,0,0,1,5.938,18H9.313a3.942,3.942,0,0,1,3.938,3.938Z" transform="translate(-0.875 -7.875)" fill="#101010"/>
  <path id="Path_26887" data-name="Path 26887" d="M8.938,3.125A2.813,2.813,0,1,1,6.125,5.938,2.813,2.813,0,0,1,8.938,3.125M8.938,2a3.938,3.938,0,1,0,3.938,3.938A3.937,3.937,0,0,0,8.938,2Z" transform="translate(-2.188 -0.875)" fill="#101010"/>
  <rect id="_Transparent_Rectangle_" data-name="&lt;Transparent Rectangle&gt;" width="18" height="18" fill="none"/>
</svg>
