<svg xmlns="http://www.w3.org/2000/svg" width="22" height="22" viewBox="0 0 22 22">
  <path d="M23.478,17.208l4.152-4.1L23.478,9l-.978.964,3.174,3.14L22.5,16.244Z" transform="translate(-7.11 -2.844)"/>
  <path d="M9.788,3.368a3.42,3.42,0,1,1-3.42,3.42,3.42,3.42,0,0,1,3.42-3.42M9.788,2a4.788,4.788,0,1,0,4.788,4.788A4.788,4.788,0,0,0,9.788,2Z" transform="translate(-1.58 -0.632)"/>
  <path d="M15.68,26.208H14.312v-3.42a3.42,3.42,0,0,0-3.42-3.42h-4.1a3.42,3.42,0,0,0-3.42,3.42v3.42H2v-3.42A4.788,4.788,0,0,1,6.788,18h4.1a4.788,4.788,0,0,1,4.788,4.788Z" transform="translate(-0.632 -5.688)"/>
</svg>