<svg id="user--multiple" xmlns="http://www.w3.org/2000/svg" width="18" height="18" viewBox="0 0 18 18">
  <path id="Path_27288" data-name="Path 27288" d="M26.938,24.75H25.813V21.938A2.816,2.816,0,0,0,23,19.125V18a3.942,3.942,0,0,1,3.938,3.938Z" transform="translate(-10.063 -7.875)"/>
  <path id="Path_27289" data-name="Path 27289" d="M13.25,24.75H12.125V21.938a2.816,2.816,0,0,0-2.812-2.812H5.938a2.816,2.816,0,0,0-2.812,2.813V24.75H2V21.938A3.942,3.942,0,0,1,5.938,18H9.313a3.942,3.942,0,0,1,3.938,3.938Z" transform="translate(-0.875 -7.875)"/>
  <path id="Path_27290" data-name="Path 27290" d="M20,2V3.125A2.813,2.813,0,0,1,20,8.75V9.875A3.937,3.937,0,1,0,20,2Z" transform="translate(-8.75 -0.875)"/>
  <path id="Path_27291" data-name="Path 27291" d="M8.938,3.125A2.813,2.813,0,1,1,6.125,5.938,2.813,2.813,0,0,1,8.938,3.125M8.938,2a3.938,3.938,0,1,0,3.938,3.938A3.937,3.937,0,0,0,8.938,2Z" transform="translate(-2.188 -0.875)"/>
  <rect id="_Transparent_Rectangle_" data-name="&lt;Transparent Rectangle&gt;" width="18" height="18" fill="none"/>
</svg>
